<svg width="20" height="19" viewBox="0 0 20 19" fill="none" xmlns="http://www.w3.org/2000/svg">
<path d="M4.61645 3.74497H18.5L16.6111 9.96719H5.63356M17.5556 13.5227H6.22222L4.33333 1.96719H1.5M7.16667 17.0783C7.16667 17.5692 6.74382 17.9672 6.22222 17.9672C5.70062 17.9672 5.27778 17.5692 5.27778 17.0783C5.27778 16.5874 5.70062 16.1894 6.22222 16.1894C6.74382 16.1894 7.16667 16.5874 7.16667 17.0783ZM17.5556 17.0783C17.5556 17.5692 17.1327 17.9672 16.6111 17.9672C16.0895 17.9672 15.6667 17.5692 15.6667 17.0783C15.6667 16.5874 16.0895 16.1894 16.6111 16.1894C17.1327 16.1894 17.5556 16.5874 17.5556 17.0783Z" stroke="black" stroke-width="2" stroke-linecap="round" stroke-linejoin="round"/>
</svg>
