<svg width="94" height="37" viewBox="0 0 94 37" fill="none" xmlns="http://www.w3.org/2000/svg">
<g clip-path="url(#clip0_61_30)">
<mask id="mask0_61_30" style="mask-type:luminance" maskUnits="userSpaceOnUse" x="0" y="0" width="94" height="37">
<path d="M0 0H94V37H0V0Z" fill="white"/>
</mask>
<g mask="url(#mask0_61_30)">
<path d="M34.6546 7.38683L30.0949 11.9156C28.3904 10.3222 26.0467 9.35769 23.5325 9.35769C18.1632 9.35769 13.8166 13.6349 13.8166 18.8766C13.8166 24.1614 18.1632 28.3954 23.5325 28.3954C26.0467 28.3954 28.3904 27.431 30.0949 25.8794L34.6546 30.3663C31.7568 33.0932 27.8364 34.7693 23.5325 34.7693C14.6263 34.7693 7.38202 27.6406 7.38202 18.8766C7.38202 10.1125 14.6263 2.98383 23.5325 2.98383C27.8364 2.98383 31.7568 4.66116 34.6546 7.38683Z" fill="white"/>
<path d="M22.8771 3.01432H3.9079V9.30432H22.8771V3.01432Z" fill="white"/>
<path d="M23.0212 28.3748H3.76001V34.761H23.0212V28.3748Z" fill="white"/>
<path d="M50.1285 28.3824C51.9195 28.3824 53.3671 26.9986 53.3671 25.2374C53.3671 23.4749 51.9195 22.0504 50.1285 22.0504H45.4836V28.3824H50.1285ZM48.083 15.6766C49.8728 15.6766 51.3216 14.2508 51.3216 12.5303C51.3216 10.7704 49.8728 9.3434 48.083 9.3434H45.4836V15.6766H48.083ZM57.7562 12.5303C57.7562 14.4605 57.1597 16.2636 56.1795 17.772C58.3954 19.5344 59.8029 22.2182 59.8029 25.2374C59.8029 30.479 55.4551 34.7562 50.1285 34.7562H39.049V2.97077H48.083C53.4523 2.97077 57.7562 7.24797 57.7562 12.5303Z" fill="white"/>
<path d="M90.06 2.97016H82.5162L76.7007 12.5926L72.8417 18.9233L72.8242 18.895L63.171 34.7556H70.7123L76.6368 25.069L82.5162 34.7556H90.06L80.3855 18.8629L90.06 2.97016Z" fill="white"/>
<path d="M73.3433 7.25799L70.7502 3.01285L63.2252 3.04369L69.6748 13.6417L73.6541 7.72542L73.3433 7.25799Z" fill="white"/>
</g>
</g>
<defs>
<clipPath id="clip0_61_30">
<rect width="94" height="37" fill="white"/>
</clipPath>
</defs>
</svg>
