<svg width="60" height="25" viewBox="0 0 60 25" fill="none" xmlns="http://www.w3.org/2000/svg">
<g clip-path="url(#clip0_6_8)">
<mask id="mask0_6_8" style="mask-type:luminance" maskUnits="userSpaceOnUse" x="0" y="0" width="60" height="25">
<path d="M0 0.5H60V24.5H0V0.5Z" fill="white"/>
</mask>
<g mask="url(#mask0_6_8)">
<path d="M22.12 5.29144L19.2096 8.22904C18.1216 7.19545 16.6256 6.56984 15.0208 6.56984C11.5936 6.56984 8.81918 9.34424 8.81918 12.7442C8.81918 16.1722 11.5936 18.9186 15.0208 18.9186C16.6256 18.9186 18.1216 18.293 19.2096 17.2866L22.12 20.197C20.2704 21.9658 17.768 23.053 15.0208 23.053C9.33598 23.053 4.71198 18.429 4.71198 12.7442C4.71198 7.05944 9.33598 2.43545 15.0208 2.43545C17.768 2.43545 20.2704 3.52345 22.12 5.29144Z" fill="#202020"/>
<path d="M14.6025 2.45519H2.49445V6.53519H14.6025V2.45519Z" fill="#202020"/>
<path d="M14.6944 18.9053H2.40002V23.0477H14.6944V18.9053Z" fill="#202020"/>
<path d="M31.9969 18.9102C33.1401 18.9102 34.0641 18.0126 34.0641 16.8702C34.0641 15.727 33.1401 14.803 31.9969 14.803H29.0321V18.9102H31.9969ZM30.6913 10.6686C31.8337 10.6686 32.7585 9.74376 32.7585 8.62776C32.7585 7.48616 31.8337 6.56056 30.6913 6.56056H29.0321V10.6686H30.6913ZM36.8657 8.62776C36.8657 9.87976 36.4849 11.0494 35.8593 12.0278C37.2737 13.171 38.1721 14.9118 38.1721 16.8702C38.1721 20.2702 35.3969 23.0446 31.9969 23.0446H24.9249V2.42696H30.6913C34.1185 2.42696 36.8657 5.20136 36.8657 8.62776Z" fill="#202020"/>
<path d="M57.4852 2.42657H52.67L48.958 8.66816L46.4948 12.7746L46.4836 12.7562L40.322 23.0442H45.1356L48.9172 16.761L52.67 23.0442H57.4852L51.31 12.7354L57.4852 2.42657Z" fill="#202020"/>
<path d="M46.8149 5.20783L45.1597 2.45423L40.3565 2.47423L44.4733 9.34863L47.0133 5.51103L46.8149 5.20783Z" fill="#202020"/>
</g>
</g>
<defs>
<clipPath id="clip0_6_8">
<rect width="60" height="24" fill="white" transform="translate(0 0.5)"/>
</clipPath>
</defs>
</svg>
