<svg width="65" height="65" viewBox="0 0 65 65" fill="none" xmlns="http://www.w3.org/2000/svg">
<g filter="url(#filter0_d_226_311)">
<rect x="4.21674" y="4.4834" width="56" height="56" rx="4" fill="#D16E2D"/>
</g>
<path d="M32.2166 19.3789C39.4541 19.3789 45.3212 25.2461 45.3212 32.4835C45.3212 39.721 39.4541 45.5881 32.2166 45.5881C24.9792 45.5881 19.112 39.721 19.112 32.4835C19.112 25.2461 24.9792 19.3789 32.2166 19.3789ZM39.2607 30.3273C38.9635 30.28 38.5817 30.4138 38.0914 30.5876C35.6591 31.4508 35.4694 30.3273 32.2172 30.3273C28.5069 30.3273 28.7751 31.4508 26.343 30.5876C25.8528 30.4138 25.471 30.28 25.1737 30.3273C24.2323 30.4773 24.1407 31.5617 24.1413 31.9902C24.1413 32.0064 24.2537 33.9775 24.2537 33.9775L24.2837 34.4864L24.4287 34.9446C24.4287 34.9446 24.4407 34.9864 24.4959 34.9898C24.5506 34.9861 24.5628 34.9446 24.5628 34.9446L24.7091 34.4809C24.7091 34.4809 24.7577 32.5666 24.7699 32.4081C24.7818 32.2492 24.9498 32.2434 24.9498 32.2434C24.9498 32.2434 25.1175 32.2495 25.1295 32.4081C25.1417 32.5666 25.1905 34.4809 25.1905 34.4809L25.3369 34.9446C25.3369 34.9446 25.3491 34.9864 25.4038 34.9898C25.459 34.9861 25.4713 34.9446 25.4713 34.9446L25.6176 34.4809C25.6176 34.4809 25.6664 32.5666 25.6787 32.4081C25.6909 32.2492 25.8586 32.2434 25.8586 32.2434C25.8586 32.2434 26.0263 32.2495 26.0385 32.4081C26.0507 32.5666 26.0993 34.4809 26.0993 34.4809L26.2456 34.9446C26.2456 34.9446 26.2578 34.9864 26.3125 34.9898C26.3675 34.9861 26.3797 34.9446 26.3797 34.9446L26.526 34.4809C26.526 34.4809 26.5749 32.5666 26.5868 32.4081C26.599 32.2492 26.7664 32.2434 26.7664 32.2434C26.7664 32.2434 26.9344 32.2495 26.9466 32.4081C26.9588 32.5666 27.0077 34.4809 27.0077 34.4809L27.154 34.9446C27.154 34.9446 27.1662 34.9864 27.2212 34.9898C27.2762 34.9861 27.2881 34.9446 27.2881 34.9446L27.4344 34.4809C27.4344 34.4809 27.4833 32.5666 27.4955 32.4081C27.5074 32.2492 27.6754 32.2434 27.6754 32.2434C27.6754 32.2434 27.8428 32.2495 27.855 32.4081C27.8672 32.5666 27.9158 34.4809 27.9158 34.4809L28.0621 34.9446C28.0621 34.9446 28.0743 34.9864 28.1293 34.9898C28.1843 34.9861 28.1965 34.9446 28.1965 34.9446L28.3428 34.4809C28.3428 34.4809 28.3911 32.5666 28.4036 32.4081C28.4158 32.2492 28.5835 32.2434 28.5835 32.2434C28.5835 32.2434 28.7512 32.2495 28.7634 32.4081C28.7757 32.5666 28.8242 34.4809 28.8242 34.4809L28.9705 34.9446C28.9705 34.9446 28.9825 34.9864 29.0377 34.9898C29.0924 34.9861 29.1046 34.9446 29.1046 34.9446L29.251 34.4809C29.251 34.4809 29.2998 32.5666 29.3117 32.4081C29.3243 32.2492 29.492 32.2434 29.492 32.2434C29.492 32.2434 29.6597 32.2495 29.6719 32.4081C29.6838 32.5666 29.7327 34.4809 29.7327 34.4809L29.879 34.9446C29.879 34.9446 29.8912 34.9864 29.9459 34.9898C30.0008 34.9861 30.0128 34.9446 30.0128 34.9446L30.1594 34.4809C30.1594 34.4809 30.2079 32.5666 30.2202 32.4081C30.2324 32.2492 30.4001 32.2434 30.4001 32.2434C30.4001 32.2434 30.5678 32.2495 30.58 32.4081C30.5922 32.5666 30.6408 34.4809 30.6408 34.4809L30.7871 34.9446C30.7871 34.9446 30.7993 34.9864 30.8546 34.9898C30.9096 34.9861 30.9218 34.9446 30.9218 34.9446L31.0681 34.4809C31.0681 34.4809 31.117 32.5666 31.1292 32.4081C31.1414 32.2492 31.3091 32.2434 31.3091 32.2434C31.3091 32.2434 31.4768 32.2495 31.489 32.4081C31.5009 32.5666 31.5498 34.4809 31.5498 34.4809L31.6961 34.9446C31.6961 34.9446 31.7083 34.9864 31.7633 34.9898C31.8183 34.9861 31.8308 34.9446 31.8308 34.9446L31.9771 34.4809C31.9771 34.4809 32.0257 32.5666 32.0379 32.4081C32.0501 32.2492 32.2178 32.2434 32.2178 32.2434C32.2178 32.2434 32.3858 32.2495 32.3977 32.4081C32.41 32.5666 32.4585 34.4809 32.4585 34.4809L32.6048 34.9446C32.6048 34.9446 32.6174 34.9864 32.6724 34.9898C32.727 34.9861 32.7392 34.9446 32.7392 34.9446L32.8856 34.4809C32.8856 34.4809 32.9344 32.5666 32.9463 32.4081C32.9589 32.2492 33.1266 32.2434 33.1266 32.2434C33.1266 32.2434 33.2943 32.2495 33.3062 32.4081C33.3187 32.5666 33.367 34.4809 33.367 34.4809L33.5133 34.9446C33.5133 34.9446 33.5255 34.9864 33.5805 34.9898C33.6354 34.9861 33.648 34.9446 33.648 34.9446L33.7943 34.4809C33.7943 34.4809 33.8425 32.5666 33.8545 32.4081C33.867 32.2492 34.035 32.2434 34.035 32.2434C34.035 32.2434 34.2027 32.2495 34.2149 32.4081C34.2271 32.5666 34.276 34.4809 34.276 34.4809L34.422 34.9446C34.422 34.9446 34.4342 34.9864 34.4895 34.9898C34.5448 34.9861 34.557 34.9446 34.557 34.9446L34.7033 34.4809C34.7033 34.4809 34.7522 32.5666 34.7644 32.4081C34.7763 32.2492 34.9443 32.2434 34.9443 32.2434C34.9443 32.2434 35.112 32.2495 35.1245 32.4081C35.1365 32.5666 35.185 34.4809 35.185 34.4809L35.3313 34.9446C35.3313 34.9446 35.3432 34.9864 35.3985 34.9898C35.4538 34.9861 35.4657 34.9446 35.4657 34.9446L35.612 34.4809C35.612 34.4809 35.6609 32.5666 35.6734 32.4081C35.6854 32.2492 35.853 32.2434 35.853 32.2434C35.853 32.2434 36.021 32.2495 36.0333 32.4081C36.0452 32.5666 36.0941 34.4809 36.0941 34.4809L36.2404 34.9446C36.2404 34.9446 36.2526 34.9864 36.3079 34.9898C36.3622 34.9861 36.3748 34.9446 36.3748 34.9446L36.5211 34.4809C36.5211 34.4809 36.5696 32.5666 36.5816 32.4081C36.5941 32.2492 36.7621 32.2434 36.7621 32.2434C36.7621 32.2434 36.9295 32.2495 36.9417 32.4081C36.9539 32.5666 37.0028 34.4809 37.0028 34.4809L37.1491 34.9446C37.1491 34.9446 37.161 34.9864 37.216 34.9898C37.2713 34.9861 37.2835 34.9446 37.2835 34.9446L37.4298 34.4809C37.4298 34.4809 37.4787 32.5666 37.4912 32.4081C37.5031 32.2492 37.6708 32.2434 37.6708 32.2434C37.6708 32.2434 37.8391 32.2495 37.851 32.4081C37.8629 32.5666 37.9118 34.4809 37.9118 34.4809L38.0581 34.9446C38.0581 34.9446 38.0707 34.9864 38.1253 34.9898C38.1806 34.9861 38.1925 34.9446 38.1925 34.9446L38.3391 34.4809C38.3391 34.4809 38.3874 32.5666 38.3999 32.4081C38.4118 32.2492 38.5792 32.2434 38.5792 32.2434C38.5792 32.2434 38.7475 32.2495 38.7598 32.4081C38.7717 32.5666 38.8205 34.4809 38.8205 34.4809L38.9669 34.9446C38.9669 34.9446 38.9791 34.9864 39.0344 34.9898C39.0893 34.9861 39.1016 34.9446 39.1016 34.9446L39.2479 34.4809C39.2479 34.4809 39.2964 32.5666 39.3087 32.4081C39.3209 32.2492 39.4886 32.2434 39.4886 32.2434C39.4886 32.2434 39.656 32.2495 39.6685 32.4081C39.6804 32.5666 39.7293 34.4809 39.7293 34.4809L39.8756 34.9446C39.8756 34.9446 39.8875 34.9864 39.9431 34.9898C39.9981 34.9861 40.0103 34.9446 40.0103 34.9446L40.1551 34.4858L40.1838 34.0032C40.1838 34.0032 40.2971 32.0104 40.2977 31.9988C40.295 31.5757 40.2082 30.4785 39.2607 30.3273Z" fill="#E5E5E5"/>
<defs>
<filter id="filter0_d_226_311" x="0.216736" y="0.483398" width="64" height="64" filterUnits="userSpaceOnUse" color-interpolation-filters="sRGB">
<feFlood flood-opacity="0" result="BackgroundImageFix"/>
<feColorMatrix in="SourceAlpha" type="matrix" values="0 0 0 0 0 0 0 0 0 0 0 0 0 0 0 0 0 0 127 0" result="hardAlpha"/>
<feOffset/>
<feGaussianBlur stdDeviation="2"/>
<feComposite in2="hardAlpha" operator="out"/>
<feColorMatrix type="matrix" values="0 0 0 0 0.819608 0 0 0 0 0.431373 0 0 0 0 0.176471 0 0 0 1 0"/>
<feBlend mode="normal" in2="BackgroundImageFix" result="effect1_dropShadow_226_311"/>
<feBlend mode="normal" in="SourceGraphic" in2="effect1_dropShadow_226_311" result="shape"/>
</filter>
</defs>
</svg>
