<svg width="64" height="64" viewBox="0 0 64 64" fill="none" xmlns="http://www.w3.org/2000/svg">
<g filter="url(#filter0_d_225_230)">
<rect x="4.21674" y="4.78943" width="55" height="55" rx="4" fill="#2D9751"/>
</g>
<path fill-rule="evenodd" clip-rule="evenodd" d="M31.8342 27.46C30.4822 26.0875 28.5544 25.2293 26.4142 25.2293C22.3244 25.2293 19.0087 28.3644 19.0087 32.2317C19.0087 36.0989 22.3242 39.2339 26.4142 39.2339C28.5692 39.2339 30.5091 38.3638 31.8624 36.9747C30.0706 34.502 29.7857 34.0614 29.7857 32.2315C29.7857 30.4714 30.6535 29.5277 31.8643 27.6697C32.8535 29.6169 33.8608 30.5181 33.8608 32.2895C33.8608 34.1648 32.9775 35.2961 31.8976 37.067C33.2461 38.4022 35.1473 39.2339 37.2541 39.2339C41.3442 39.2339 44.6597 36.099 44.6597 32.2317C44.6597 28.3645 41.3442 25.2293 37.2541 25.2293C35.1142 25.2293 33.1862 26.0877 31.8342 27.46ZM31.7167 24.5807C33.2549 23.5301 35.1227 22.9146 37.1366 22.9146C42.3952 22.9146 46.6581 27.1119 46.6581 32.2895C46.6581 37.4672 42.3952 41.6645 37.1366 41.6645C35.1227 41.6645 33.2549 41.049 31.7167 39.9984C30.1784 41.049 28.3106 41.6645 26.2968 41.6645C21.0381 41.6645 16.7753 37.4672 16.7753 32.2895C16.7753 27.1119 21.0381 22.9146 26.2968 22.9146C28.3106 22.9146 30.1784 23.5301 31.7167 24.5807Z" fill="#E5E5E5"/>
<defs>
<filter id="filter0_d_225_230" x="0.216736" y="0.789429" width="63" height="63" filterUnits="userSpaceOnUse" color-interpolation-filters="sRGB">
<feFlood flood-opacity="0" result="BackgroundImageFix"/>
<feColorMatrix in="SourceAlpha" type="matrix" values="0 0 0 0 0 0 0 0 0 0 0 0 0 0 0 0 0 0 127 0" result="hardAlpha"/>
<feOffset/>
<feGaussianBlur stdDeviation="2"/>
<feComposite in2="hardAlpha" operator="out"/>
<feColorMatrix type="matrix" values="0 0 0 0 0.176471 0 0 0 0 0.592157 0 0 0 0 0.317647 0 0 0 1 0"/>
<feBlend mode="normal" in2="BackgroundImageFix" result="effect1_dropShadow_225_230"/>
<feBlend mode="normal" in="SourceGraphic" in2="effect1_dropShadow_225_230" result="shape"/>
</filter>
</defs>
</svg>
