<svg width="23" height="23" viewBox="0 0 23 23" fill="none" xmlns="http://www.w3.org/2000/svg">
<g clip-path="url(#clip0_12_31)">
<mask id="mask0_12_31" style="mask-type:luminance" maskUnits="userSpaceOnUse" x="0" y="0" width="23" height="23">
<path d="M23 0H0V23H23V0Z" fill="white"/>
</mask>
<g mask="url(#mask0_12_31)">
<path d="M10.0625 16.2917C13.5028 16.2917 16.2916 13.5028 16.2916 10.0625C16.2916 6.62224 13.5028 3.83334 10.0625 3.83334C6.62221 3.83334 3.83331 6.62224 3.83331 10.0625C3.83331 13.5028 6.62221 16.2917 10.0625 16.2917Z" stroke="black" stroke-width="2" stroke-linejoin="round"/>
<path d="M18.9248 20.1157C19.2484 20.1978 19.6058 20.1123 19.859 19.8592L19.8592 19.859C20.1123 19.6058 20.1978 19.2484 20.1157 18.9248L20.2126 18.8278L19.8592 18.4743L19.8591 18.4742L19.5056 18.1206L19.5055 18.1207L15.0674 13.6826L14.7139 13.329L14.3603 13.6826L13.6826 14.3603L13.329 14.7139L13.6826 15.0674L18.1207 19.5055L18.1206 19.5056L18.4742 19.8591L18.4743 19.8592L18.8278 20.2126L18.9248 20.1157Z" fill="black" stroke="black"/>
</g>
</g>
<defs>
<clipPath id="clip0_12_31">
<rect width="23" height="23" fill="white"/>
</clipPath>
</defs>
</svg>
