<svg width="64" height="65" viewBox="0 0 64 65" fill="none" xmlns="http://www.w3.org/2000/svg">
<g filter="url(#filter0_d_214_15)">
<rect x="4.21674" y="4.60736" width="55.7183" height="55.7183" rx="9" fill="#972D2D"/>
</g>
<path d="M30.8885 24.6404C27.0806 25.2132 24.1611 28.4989 24.1611 32.4664C24.1611 36.8376 27.7046 40.3809 32.0757 40.3809C36.4467 40.3809 39.9902 36.8376 39.9902 32.4664C39.9902 28.4989 37.0707 25.2132 33.2628 24.6404V30.8835C33.2628 31.5391 32.7313 32.0707 32.0757 32.0707C31.42 32.0707 30.8885 31.5391 30.8885 30.8835V24.6404Z" fill="#CDCDCD"/>
<path d="M33.6586 19.0117C33.6586 19.8859 32.9499 20.5946 32.0757 20.5946C31.2015 20.5946 30.4928 19.8859 30.4928 19.0117C30.4928 18.1375 31.2015 17.4288 32.0757 17.4288C32.9499 17.4288 33.6586 18.1375 33.6586 19.0117Z" fill="#CDCDCD"/>
<path d="M45.5304 34.0494C44.6562 34.0494 43.9475 33.3407 43.9475 32.4664C43.9475 31.5922 44.6562 30.8835 45.5304 30.8835C46.4047 30.8835 47.1133 31.5922 47.1133 32.4664C47.1133 33.3407 46.4047 34.0494 45.5304 34.0494Z" fill="#CDCDCD"/>
<path d="M18.621 34.0494C17.7468 34.0494 17.0381 33.3407 17.0381 32.4664C17.0381 31.5922 17.7468 30.8835 18.621 30.8835C19.4952 30.8835 20.2039 31.5922 20.2039 32.4664C20.2039 33.3407 19.4952 34.0494 18.621 34.0494Z" fill="#CDCDCD"/>
<path d="M23.6813 21.8331C24.2995 22.4512 24.2995 23.4535 23.6813 24.0716C23.0631 24.6898 22.0609 24.6898 21.4427 24.0716C20.8246 23.4535 20.8246 22.4512 21.4427 21.8331C22.0609 21.2149 23.0631 21.2149 23.6813 21.8331Z" fill="#CDCDCD"/>
<path d="M42.7087 40.8612C43.3268 41.4794 43.3268 42.4817 42.7087 43.0998C42.0904 43.7179 41.0883 43.7179 40.47 43.0998C39.8519 42.4817 39.8519 41.4794 40.47 40.8612C41.0883 40.2431 42.0904 40.2431 42.7087 40.8612Z" fill="#CDCDCD"/>
<path d="M42.7087 24.0716C42.0904 24.6898 41.0883 24.6898 40.47 24.0716C39.8519 23.4535 39.8519 22.4512 40.47 21.8331C41.0883 21.2149 42.0904 21.2149 42.7087 21.8331C43.3268 22.4512 43.3268 23.4535 42.7087 24.0716Z" fill="#CDCDCD"/>
<path d="M23.6813 43.0998C23.0631 43.7179 22.0609 43.7179 21.4427 43.0998C20.8246 42.4817 20.8246 41.4794 21.4427 40.8612C22.0609 40.2431 23.0631 40.2431 23.6813 40.8612C24.2995 41.4794 24.2995 42.4817 23.6813 43.0998Z" fill="#CDCDCD"/>
<defs>
<filter id="filter0_d_214_15" x="0.216736" y="0.607361" width="63.7183" height="63.7183" filterUnits="userSpaceOnUse" color-interpolation-filters="sRGB">
<feFlood flood-opacity="0" result="BackgroundImageFix"/>
<feColorMatrix in="SourceAlpha" type="matrix" values="0 0 0 0 0 0 0 0 0 0 0 0 0 0 0 0 0 0 127 0" result="hardAlpha"/>
<feOffset/>
<feGaussianBlur stdDeviation="2"/>
<feComposite in2="hardAlpha" operator="out"/>
<feColorMatrix type="matrix" values="0 0 0 0 0.592157 0 0 0 0 0.176471 0 0 0 0 0.176471 0 0 0 1 0"/>
<feBlend mode="normal" in2="BackgroundImageFix" result="effect1_dropShadow_214_15"/>
<feBlend mode="normal" in="SourceGraphic" in2="effect1_dropShadow_214_15" result="shape"/>
</filter>
</defs>
</svg>
